<mxfile host="app.diagrams.net" modified="2023-03-24T08:58:22.120Z" agent="5.0 (Windows NT 10.0; Win64; x64) AppleWebKit/537.36 (KHTML, like Gecko) Chrome/111.0.0.0 Safari/537.36 Edg/111.0.1661.44" etag="Tnzsz9ddu970VO8Sawxl" version="20.8.23" type="github" pages="2">
  <diagram name="Push Model" id="XXfTxr8uuA-3bv_Xm_4F">
    <mxGraphModel dx="1050" dy="1718" grid="1" gridSize="10" guides="1" tooltips="1" connect="1" arrows="1" fold="1" page="1" pageScale="1" pageWidth="827" pageHeight="1169" math="0" shadow="0">
      <root>
        <mxCell id="8-09qc1lDSDtVWGsDXhB-0" />
        <mxCell id="8-09qc1lDSDtVWGsDXhB-1" parent="8-09qc1lDSDtVWGsDXhB-0" />
        <mxCell id="8-09qc1lDSDtVWGsDXhB-2" value="" style="rounded=1;whiteSpace=wrap;html=1;" parent="8-09qc1lDSDtVWGsDXhB-1" vertex="1">
          <mxGeometry x="10" y="217" width="910" height="383" as="geometry" />
        </mxCell>
        <mxCell id="8-09qc1lDSDtVWGsDXhB-7" value="Server" style="rounded=1;whiteSpace=wrap;html=1;" parent="8-09qc1lDSDtVWGsDXhB-1" vertex="1">
          <mxGeometry x="170" y="-160" width="540" height="240" as="geometry" />
        </mxCell>
        <mxCell id="hEXGi-tdeYKESiE1osO8-0" style="edgeStyle=orthogonalEdgeStyle;rounded=0;orthogonalLoop=1;jettySize=auto;html=1;" parent="8-09qc1lDSDtVWGsDXhB-1" source="8-09qc1lDSDtVWGsDXhB-8" target="8-09qc1lDSDtVWGsDXhB-7" edge="1">
          <mxGeometry relative="1" as="geometry">
            <Array as="points">
              <mxPoint x="140" y="150" />
              <mxPoint x="440" y="150" />
            </Array>
          </mxGeometry>
        </mxCell>
        <mxCell id="8-09qc1lDSDtVWGsDXhB-8" value="Clients" style="rounded=1;whiteSpace=wrap;html=1;" parent="8-09qc1lDSDtVWGsDXhB-1" vertex="1">
          <mxGeometry x="80" y="240" width="120" height="60" as="geometry" />
        </mxCell>
        <mxCell id="hEXGi-tdeYKESiE1osO8-1" style="edgeStyle=orthogonalEdgeStyle;rounded=0;orthogonalLoop=1;jettySize=auto;html=1;entryX=0.5;entryY=1;entryDx=0;entryDy=0;" parent="8-09qc1lDSDtVWGsDXhB-1" source="8-09qc1lDSDtVWGsDXhB-9" target="8-09qc1lDSDtVWGsDXhB-7" edge="1">
          <mxGeometry relative="1" as="geometry">
            <Array as="points">
              <mxPoint x="320" y="150" />
              <mxPoint x="440" y="150" />
            </Array>
          </mxGeometry>
        </mxCell>
        <mxCell id="8-09qc1lDSDtVWGsDXhB-9" value="Clients" style="rounded=1;whiteSpace=wrap;html=1;" parent="8-09qc1lDSDtVWGsDXhB-1" vertex="1">
          <mxGeometry x="260" y="240" width="120" height="60" as="geometry" />
        </mxCell>
        <mxCell id="hEXGi-tdeYKESiE1osO8-10" style="edgeStyle=orthogonalEdgeStyle;rounded=0;orthogonalLoop=1;jettySize=auto;html=1;" parent="8-09qc1lDSDtVWGsDXhB-1" source="8-09qc1lDSDtVWGsDXhB-10" target="8-09qc1lDSDtVWGsDXhB-7" edge="1">
          <mxGeometry relative="1" as="geometry">
            <Array as="points">
              <mxPoint x="560" y="150" />
              <mxPoint x="440" y="150" />
            </Array>
          </mxGeometry>
        </mxCell>
        <mxCell id="8-09qc1lDSDtVWGsDXhB-10" value="Clients" style="rounded=1;whiteSpace=wrap;html=1;" parent="8-09qc1lDSDtVWGsDXhB-1" vertex="1">
          <mxGeometry x="500" y="240" width="120" height="60" as="geometry" />
        </mxCell>
        <mxCell id="hEXGi-tdeYKESiE1osO8-9" style="edgeStyle=orthogonalEdgeStyle;rounded=0;orthogonalLoop=1;jettySize=auto;html=1;" parent="8-09qc1lDSDtVWGsDXhB-1" source="8-09qc1lDSDtVWGsDXhB-11" target="8-09qc1lDSDtVWGsDXhB-7" edge="1">
          <mxGeometry relative="1" as="geometry">
            <Array as="points">
              <mxPoint x="740" y="150" />
              <mxPoint x="440" y="150" />
            </Array>
          </mxGeometry>
        </mxCell>
        <mxCell id="8-09qc1lDSDtVWGsDXhB-11" value="Clients" style="rounded=1;whiteSpace=wrap;html=1;" parent="8-09qc1lDSDtVWGsDXhB-1" vertex="1">
          <mxGeometry x="680" y="240" width="120" height="60" as="geometry" />
        </mxCell>
        <mxCell id="8-09qc1lDSDtVWGsDXhB-12" style="edgeStyle=orthogonalEdgeStyle;rounded=0;orthogonalLoop=1;jettySize=auto;html=1;entryX=0.5;entryY=0;entryDx=0;entryDy=0;entryPerimeter=0;" parent="8-09qc1lDSDtVWGsDXhB-1" source="8-09qc1lDSDtVWGsDXhB-13" target="8-09qc1lDSDtVWGsDXhB-14" edge="1">
          <mxGeometry relative="1" as="geometry" />
        </mxCell>
        <mxCell id="8-09qc1lDSDtVWGsDXhB-13" value="Service" style="rounded=1;whiteSpace=wrap;html=1;" parent="8-09qc1lDSDtVWGsDXhB-1" vertex="1">
          <mxGeometry x="80" y="370" width="120" height="60" as="geometry" />
        </mxCell>
        <mxCell id="8-09qc1lDSDtVWGsDXhB-14" value="DB" style="strokeWidth=2;html=1;shape=mxgraph.flowchart.database;whiteSpace=wrap;" parent="8-09qc1lDSDtVWGsDXhB-1" vertex="1">
          <mxGeometry x="110" y="500" width="60" height="60" as="geometry" />
        </mxCell>
        <mxCell id="hEXGi-tdeYKESiE1osO8-11" value="Save Files in Folder" style="rounded=1;whiteSpace=wrap;html=1;" parent="8-09qc1lDSDtVWGsDXhB-1" vertex="1">
          <mxGeometry x="230" y="-130" width="120" height="60" as="geometry" />
        </mxCell>
        <mxCell id="hEXGi-tdeYKESiE1osO8-12" value="Master file Sync Service" style="rounded=1;whiteSpace=wrap;html=1;" parent="8-09qc1lDSDtVWGsDXhB-1" vertex="1">
          <mxGeometry x="540" y="-130" width="120" height="60" as="geometry" />
        </mxCell>
        <mxCell id="hEXGi-tdeYKESiE1osO8-13" value="" style="endArrow=classic;startArrow=classic;html=1;rounded=0;entryX=0.5;entryY=1;entryDx=0;entryDy=0;exitX=0.5;exitY=1;exitDx=0;exitDy=0;" parent="8-09qc1lDSDtVWGsDXhB-1" source="8-09qc1lDSDtVWGsDXhB-7" target="hEXGi-tdeYKESiE1osO8-11" edge="1">
          <mxGeometry width="50" height="50" relative="1" as="geometry">
            <mxPoint x="250" y="-20" as="sourcePoint" />
            <mxPoint x="300" y="-70" as="targetPoint" />
          </mxGeometry>
        </mxCell>
      </root>
    </mxGraphModel>
  </diagram>
  <diagram name="Pull Model - Rejected" id="4y6Dl48-TKHgFBQ8QtTi">
    <mxGraphModel dx="1050" dy="549" grid="1" gridSize="10" guides="1" tooltips="1" connect="1" arrows="1" fold="1" page="1" pageScale="1" pageWidth="827" pageHeight="1169" math="0" shadow="0">
      <root>
        <mxCell id="0" />
        <mxCell id="1" parent="0" />
        <mxCell id="KQnjqyPtdk7mbY5me8aT-10" value="" style="rounded=1;whiteSpace=wrap;html=1;" parent="1" vertex="1">
          <mxGeometry x="10" y="220" width="880" height="390" as="geometry" />
        </mxCell>
        <mxCell id="KQnjqyPtdk7mbY5me8aT-6" style="edgeStyle=orthogonalEdgeStyle;rounded=0;orthogonalLoop=1;jettySize=auto;html=1;entryX=0.5;entryY=0;entryDx=0;entryDy=0;" parent="1" source="KQnjqyPtdk7mbY5me8aT-1" target="KQnjqyPtdk7mbY5me8aT-2" edge="1">
          <mxGeometry relative="1" as="geometry" />
        </mxCell>
        <mxCell id="KQnjqyPtdk7mbY5me8aT-7" style="edgeStyle=orthogonalEdgeStyle;rounded=0;orthogonalLoop=1;jettySize=auto;html=1;entryX=0.5;entryY=0;entryDx=0;entryDy=0;" parent="1" source="KQnjqyPtdk7mbY5me8aT-1" target="KQnjqyPtdk7mbY5me8aT-3" edge="1">
          <mxGeometry relative="1" as="geometry" />
        </mxCell>
        <mxCell id="KQnjqyPtdk7mbY5me8aT-8" style="edgeStyle=orthogonalEdgeStyle;rounded=0;orthogonalLoop=1;jettySize=auto;html=1;entryX=0.5;entryY=0;entryDx=0;entryDy=0;" parent="1" source="KQnjqyPtdk7mbY5me8aT-1" target="KQnjqyPtdk7mbY5me8aT-4" edge="1">
          <mxGeometry relative="1" as="geometry" />
        </mxCell>
        <mxCell id="KQnjqyPtdk7mbY5me8aT-9" style="edgeStyle=orthogonalEdgeStyle;rounded=0;orthogonalLoop=1;jettySize=auto;html=1;entryX=0.5;entryY=0;entryDx=0;entryDy=0;" parent="1" source="KQnjqyPtdk7mbY5me8aT-1" target="KQnjqyPtdk7mbY5me8aT-5" edge="1">
          <mxGeometry relative="1" as="geometry" />
        </mxCell>
        <mxCell id="KQnjqyPtdk7mbY5me8aT-1" value="Server" style="rounded=1;whiteSpace=wrap;html=1;" parent="1" vertex="1">
          <mxGeometry x="320" y="20" width="240" height="60" as="geometry" />
        </mxCell>
        <mxCell id="KQnjqyPtdk7mbY5me8aT-2" value="Clients" style="rounded=1;whiteSpace=wrap;html=1;" parent="1" vertex="1">
          <mxGeometry x="80" y="240" width="120" height="60" as="geometry" />
        </mxCell>
        <mxCell id="KQnjqyPtdk7mbY5me8aT-3" value="Clients" style="rounded=1;whiteSpace=wrap;html=1;" parent="1" vertex="1">
          <mxGeometry x="260" y="240" width="120" height="60" as="geometry" />
        </mxCell>
        <mxCell id="KQnjqyPtdk7mbY5me8aT-4" value="Clients" style="rounded=1;whiteSpace=wrap;html=1;" parent="1" vertex="1">
          <mxGeometry x="500" y="240" width="120" height="60" as="geometry" />
        </mxCell>
        <mxCell id="KQnjqyPtdk7mbY5me8aT-5" value="Clients" style="rounded=1;whiteSpace=wrap;html=1;" parent="1" vertex="1">
          <mxGeometry x="680" y="240" width="120" height="60" as="geometry" />
        </mxCell>
        <mxCell id="KQnjqyPtdk7mbY5me8aT-13" style="edgeStyle=orthogonalEdgeStyle;rounded=0;orthogonalLoop=1;jettySize=auto;html=1;entryX=0.5;entryY=0;entryDx=0;entryDy=0;entryPerimeter=0;" parent="1" source="KQnjqyPtdk7mbY5me8aT-11" target="KQnjqyPtdk7mbY5me8aT-12" edge="1">
          <mxGeometry relative="1" as="geometry" />
        </mxCell>
        <mxCell id="KQnjqyPtdk7mbY5me8aT-11" value="Service" style="rounded=1;whiteSpace=wrap;html=1;" parent="1" vertex="1">
          <mxGeometry x="80" y="370" width="120" height="60" as="geometry" />
        </mxCell>
        <mxCell id="KQnjqyPtdk7mbY5me8aT-12" value="DB" style="strokeWidth=2;html=1;shape=mxgraph.flowchart.database;whiteSpace=wrap;" parent="1" vertex="1">
          <mxGeometry x="110" y="500" width="60" height="60" as="geometry" />
        </mxCell>
      </root>
    </mxGraphModel>
  </diagram>
</mxfile>
